<svg width="135" height="40" viewBox="0 0 135 40" fill="none" xmlns="http://www.w3.org/2000/svg">
<g id="Misc/Logo/Brands/#1">
<path id="Logitech" fill-rule="evenodd" clip-rule="evenodd" d="M67.0238 2.77862H62.1513V8.79113H59.5259V13.1297H62.1513V28.3161H67.0238V13.1297H69.6888V8.79113H67.0238V2.77862ZM54.9592 0C53.1696 0 51.7612 1.4084 51.7612 3.23542C51.7612 5.0235 53.1696 6.43267 54.9592 6.43267C56.8237 6.43267 58.2328 5.0235 58.2328 3.23542C58.2328 1.4084 56.8237 0 54.9592 0ZM132.411 8.33585C131.575 8.33585 130.927 7.68854 130.927 6.85053C130.927 6.05126 131.575 5.40395 132.411 5.40395C133.211 5.40395 133.857 6.05126 133.857 6.85053C133.857 7.68854 133.211 8.33585 132.411 8.33585ZM132.411 5.17679C131.46 5.17679 130.699 5.93768 130.699 6.85053C130.699 7.80212 131.46 8.56378 132.411 8.56378C133.325 8.56378 134.086 7.80212 134.086 6.85053C134.086 5.93768 133.325 5.17679 132.411 5.17679ZM75.3581 16.5184C76.0054 13.9305 77.9849 12.4839 80.5349 12.4839C83.0856 12.4839 84.9872 13.8916 85.5971 16.5184H75.3581ZM80.6483 8.18257C74.7885 8.18257 70.3346 12.6746 70.3346 18.6497C70.3346 24.5485 74.408 28.8874 80.7248 28.8874C84.2263 28.8874 87.348 27.594 89.6316 25.157L86.3582 21.9231C84.7593 23.4459 83.0466 24.5485 80.839 24.5485C78.1757 24.5485 76.1579 23.0257 75.4732 20.4768H90.6581V19.297C90.6581 12.6357 86.5489 8.18257 80.6483 8.18257ZM123.77 8.18257C121.373 8.18257 119.318 9.09522 117.872 10.6569V0.533733H112.999V28.3161H117.872V17.6979C117.872 14.8821 119.661 12.94 122.629 12.94C125.408 12.94 126.93 14.6525 126.93 17.6979V28.3161H131.802V16.8227C131.802 11.4188 128.413 8.18257 123.77 8.18257ZM132.03 6.81311V6.20302H132.411C132.716 6.20302 132.831 6.31832 132.831 6.50883C132.831 6.69877 132.716 6.81311 132.411 6.81311H132.03ZM133.058 6.50883C133.058 6.12838 132.791 5.9751 132.411 5.9751H131.802V7.72577H132.03V7.04104H132.411L132.831 7.72577H133.095L132.64 7.00381C132.907 6.96411 133.058 6.81311 133.058 6.50883ZM102.761 12.9026C104.816 12.9026 106.492 13.9677 107.786 15.4532L111.173 12.1035C109.27 9.70531 106.263 8.18257 102.839 8.18257C96.9397 8.18257 92.2951 12.6746 92.2951 18.5344C92.2951 24.3959 96.9397 28.8874 102.839 28.8874C106.263 28.8874 109.27 27.3643 111.173 24.9686L107.786 21.6189C106.53 23.0649 104.816 24.168 102.724 24.168C99.6023 24.168 97.2043 21.7326 97.2043 18.5344C97.2043 15.3372 99.6023 12.9026 102.761 12.9026ZM52.5611 28.3161H57.4338V8.79113H52.5611V28.3161ZM17.3175 24.168C14.1958 24.168 11.7213 21.6952 11.7213 18.4972C11.7213 15.3372 14.1958 12.9026 17.3175 12.9026C20.476 12.9026 22.9503 15.3372 22.9503 18.5344C22.9503 21.7326 20.476 24.168 17.3175 24.168ZM17.3175 8.18257C11.4172 8.18257 6.77417 12.6746 6.77417 18.5344C6.77417 24.3959 11.4172 28.8874 17.3175 28.8874C23.2164 28.8874 27.8593 24.3959 27.8593 18.5344C27.8593 12.6746 23.2164 8.18257 17.3175 8.18257ZM0 28.3161H4.87251V0.533733H0V28.3161ZM40.0771 24.168C36.957 24.168 34.4827 21.6952 34.4827 18.4972C34.4827 15.3372 36.957 12.9026 40.0771 12.9026C43.2364 12.9026 45.7107 15.3372 45.7107 18.5344C45.7107 21.7326 43.2364 24.168 40.0771 24.168ZM50.4299 12.6746V8.79113H43.5779C42.4753 8.41221 41.2958 8.18257 40.0771 8.18257C34.1784 8.18257 29.5355 12.6746 29.5355 18.5344C29.5355 24.3959 34.1784 28.8874 40.0771 28.8874C45.9761 28.8874 50.6206 24.3959 50.6206 18.5344C50.6206 16.5556 50.0867 14.6152 49.0215 13.1687L50.4299 12.6746ZM40.0771 35.2434C36.957 35.2434 34.4827 32.8082 34.4827 29.6491H29.5355C29.5355 35.5104 34.1784 40 40.0771 40C45.9761 40 50.6206 35.5104 50.6206 29.6491H45.6718C45.6718 32.8082 43.1972 35.2434 40.0771 35.2434Z" fill="#969696"/>
</g>
</svg>
