<svg width="157" height="41" viewBox="0 0 157 41" fill="none" xmlns="http://www.w3.org/2000/svg">
<g id="Misc/Logo/Brands/#5">
<path id="Linked In" fill-rule="evenodd" clip-rule="evenodd" d="M153.829 0.275757H119.977C118.359 0.275757 117.045 1.55796 117.045 3.1381V37.134C117.045 38.7158 118.359 39.9996 119.977 39.9996H153.829C155.45 39.9996 156.77 38.7158 156.77 37.134V3.1381C156.77 1.55796 155.45 0.275757 153.829 0.275757ZM125.882 5.74478C127.766 5.74478 129.296 7.27554 129.296 9.15995C129.296 11.046 127.766 12.5768 125.882 12.5768C123.993 12.5768 122.465 11.046 122.465 9.15995C122.465 7.27554 123.993 5.74478 125.882 5.74478ZM128.827 34.1257H122.934V15.1682H128.827V34.1257ZM132.522 15.1683H138.173V17.7586H138.252C139.039 16.2681 140.961 14.6971 143.827 14.6971C149.794 14.6971 150.895 18.6237 150.895 23.7274V34.1258H145.007V24.9067C145.007 22.7084 144.967 19.8805 141.946 19.8805C138.88 19.8805 138.409 22.2753 138.409 24.7478V34.1258H132.522V15.1683ZM23.1254 5.73628C25.0115 5.73628 26.5422 7.26704 26.5422 9.15145C26.5422 11.0392 25.0115 12.5655 23.1254 12.5655C21.2415 12.5655 19.7108 11.0392 19.7108 9.15145C19.7108 7.26704 21.2415 5.73628 23.1254 5.73628ZM26.0705 34.1172V15.1597H20.1803V34.1172H26.0705ZM0 6.15082V34.1249H17.4737V28.4705H6.12828V6.15082H0ZM56.5789 6.14886H50.6911V34.1249H56.5789V24.7536H56.6556L62.9047 34.1249H70.306L62.7427 23.9287L70.4674 15.1513H63.2489L56.5789 22.868V6.14886ZM29.328 15.1625H34.9818V17.7539H35.0607C35.8452 16.2618 37.7697 14.6918 40.6356 14.6918C46.6047 14.6918 47.7037 18.6179 47.7037 23.7211V34.1172H41.8138V24.8998C41.8138 22.7004 41.7732 19.8745 38.7495 19.8745C35.6877 19.8745 35.2179 22.27 35.2179 24.7426V34.1172H29.328V15.1625ZM79.8006 34.6065C82.8651 34.6065 85.9652 33.231 87.8502 30.8354L83.728 27.812C82.7459 29.1469 81.4513 30.1289 79.5266 30.1289C77.2488 30.1289 75.5578 28.6763 75.0902 26.4379H88.7539V24.5924C88.7539 18.5074 85.3021 14.5814 79.8006 14.5814C73.9123 14.5814 69.2003 18.5074 69.2003 24.5924C69.2003 30.6782 73.9123 34.6065 79.8006 34.6065ZM79.2499 18.8219C81.3724 18.8219 82.9035 20.4713 82.8651 22.4346H75.0902C75.2455 20.5888 76.6601 18.8219 79.2499 18.8219ZM111.155 34.1145H105.735V31.6006H105.658C104.752 32.9744 102.477 34.5854 99.8062 34.5854C94.1505 34.5854 90.4211 30.5035 90.4211 24.7308C90.4211 19.4296 93.719 14.5609 99.1372 14.5609C101.574 14.5609 103.851 15.2279 105.186 17.0734H105.262V6.14872H111.155V34.1145ZM101.021 19.744C98.0779 19.744 96.3113 21.7087 96.3113 24.5727C96.3113 27.4414 98.0779 29.402 101.021 29.402C103.967 29.402 105.735 27.4414 105.735 24.5727C105.735 21.7087 103.967 19.744 101.021 19.744Z" fill="#969696"/>
</g>
</svg>
