<svg width="142" height="26" viewBox="0 0 142 26" fill="none" xmlns="http://www.w3.org/2000/svg">
<g id="Misc/Logo/Brands/#6">
<path id="Philips" fill-rule="evenodd" clip-rule="evenodd" d="M48.0977 0.522796H40.4826V10.4413H32.5519V0.522796H24.9338V25.4789H32.5519V15.6612H40.4826V25.4789H48.0977V0.522796ZM74.6012 20.4658V0.522796H66.9827V25.4789H80.7572L81.9032 20.4658H74.6012ZM53.7331 25.4789H61.3494V0.522796H53.7331V25.4789ZM84.6175 25.4789H92.2326V0.522796H84.6175V25.4789ZM129.793 6.89027C129.793 5.53418 131.151 4.90588 133.34 4.90588C135.74 4.90588 138.35 5.42868 140.122 6.16248L139.498 0.731229C137.515 0.314364 135.74 0 132.507 0C126.351 0 122.178 2.42871 122.178 7.52029C122.178 16.2882 134.075 14.5152 134.075 18.5869C134.075 20.1519 132.924 20.9852 130.105 20.9852C127.606 20.9852 123.741 20.1519 121.448 19.0038L122.284 24.7494C124.578 25.5831 127.707 26 130.213 26C136.576 26 141.794 23.911 141.794 17.6443C141.794 9.29368 129.793 10.8599 129.793 6.89027ZM108.304 19.5266C115.395 19.5266 119.882 15.8696 119.882 9.50211C119.882 2.50591 115.084 0 107.257 0C104.232 0 100.578 0.208432 97.97 0.522796V25.4789H105.59V19.5266H108.304ZM112.368 9.60633C112.368 12.843 110.807 15.0359 106.84 15.0359H105.59V4.72618C106.032 4.70045 106.449 4.70045 106.84 4.70045C110.595 4.70045 112.368 6.47384 112.368 9.60633ZM10.329 19.5266C17.423 19.5266 21.9086 15.8696 21.9086 9.50211C21.9086 2.50591 17.1086 0 9.28553 0C6.25854 0 2.60669 0.208432 0 0.522796V25.4789H7.61464V19.5266H10.329ZM14.3994 9.60633C14.3994 12.843 12.8332 15.0359 8.86867 15.0359H7.61464V4.72618C8.06067 4.70045 8.47753 4.70045 8.86867 4.70045C12.6217 4.70045 14.3994 6.47384 14.3994 9.60633Z" fill="#969696"/>
</g>
</svg>
