<svg width="170" height="58" viewBox="0 0 170 58" fill="none" xmlns="http://www.w3.org/2000/svg">
<g id="Misc/Logo/Store/Appstore">
<rect id="&#226;&#151;&#188;&#239;&#184;&#143; Background" x="0.5" y="0.5" width="169" height="57" rx="5.5" fill="#DBDBDB" stroke="#DBDBDB"/>
<path id="Logo" fill-rule="evenodd" clip-rule="evenodd" d="M32.5553 17.078C33.6407 15.7207 34.3834 13.874 34.1772 12C32.6062 12.0695 30.6416 13.0866 29.5102 14.4142C28.5093 15.5841 27.6151 17.5015 27.8461 19.3047C29.6108 19.4364 31.4227 18.4143 32.5553 17.078ZM36.5293 28.8486C36.4936 24.8759 39.7573 22.928 39.9542 22.8104L39.9582 22.8081C38.0817 20.0722 35.1732 19.6984 34.1511 19.6686C32.6567 19.5113 31.1896 20.0936 29.9909 20.5694C29.2302 20.8713 28.5776 21.1303 28.0945 21.1303C27.5445 21.1303 26.873 20.8605 26.1205 20.5581C25.1366 20.1627 24.0141 19.7117 22.8438 19.7357C20.1862 19.7766 17.7 21.3153 16.3364 23.7047C13.5223 28.5766 15.6211 35.736 18.3172 39.674C19.6659 41.6039 21.2418 43.7561 23.3046 43.6803C24.2407 43.6423 24.9048 43.3627 25.5909 43.0738C26.3838 42.74 27.2062 42.3937 28.5118 42.3937C29.7433 42.3937 30.5307 42.7289 31.2862 43.0505C32.0109 43.359 32.7063 43.655 33.7363 43.6306C35.9022 43.5984 37.2658 41.6946 38.5672 39.7473C40.1258 37.5392 40.7517 35.3597 40.7766 35.248C40.7269 35.2318 36.5716 33.6459 36.5293 28.8486ZM54.8941 13.0696H51.9788V21.7433H54.8941C57.4727 21.7433 58.9875 20.1384 58.9875 17.4034C58.9875 14.6745 57.4667 13.0696 54.8941 13.0696ZM53.0607 14.0433V20.7695H54.8219C56.7875 20.7695 57.8815 19.5673 57.8815 17.4154C57.8815 15.2455 56.7935 14.0433 54.8219 14.0433H53.0607ZM60.2694 18.6176C60.2694 20.6072 61.4355 21.8515 63.1667 21.8515C64.8918 21.8515 66.0579 20.6072 66.0579 18.6176C66.0579 16.622 64.8918 15.3838 63.1667 15.3838C61.4355 15.3838 60.2694 16.622 60.2694 18.6176ZM63.1667 20.9318C64.2727 20.9318 64.994 20.0903 64.994 18.6176C64.994 17.145 64.2727 16.3034 63.1667 16.3034C62.0607 16.3034 61.3333 17.145 61.3333 18.6176C61.3333 20.0903 62.0607 20.9318 63.1667 20.9318ZM72.6655 21.7433H73.7294L75.4726 15.492H74.4387L73.1884 20.5772H73.1644L71.7458 15.492H70.736L69.3234 20.5772H69.2994L68.0491 15.492H67.0092L68.7584 21.7433H69.8223L71.2289 16.9045H71.2529L72.6655 21.7433ZM76.7365 15.492H77.7223V16.4898H77.7463C78.0949 15.8165 78.7621 15.3838 79.7299 15.3838C81.1004 15.3838 81.8938 16.2674 81.8938 17.6859V21.7433H80.8479V17.8723C80.8479 16.8624 80.3731 16.3094 79.4113 16.3094C78.4255 16.3094 77.7824 17.0067 77.7824 18.0646V21.7433H76.7365V15.492ZM83.6867 13.0696V21.7433H84.7326V13.0696H83.6867ZM89.1462 21.8515C87.415 21.8515 86.2489 20.6072 86.2489 18.6176C86.2489 16.622 87.415 15.3838 89.1462 15.3838C90.8713 15.3838 92.0374 16.622 92.0374 18.6176C92.0374 20.6072 90.8713 21.8515 89.1462 21.8515ZM90.9735 18.6176C90.9735 20.0903 90.2522 20.9318 89.1462 20.9318C88.0402 20.9318 87.3128 20.0903 87.3128 18.6176C87.3128 17.145 88.0402 16.3034 89.1462 16.3034C90.2522 16.3034 90.9735 17.145 90.9735 18.6176ZM95.327 21.8515C94.0827 21.8515 93.2472 21.1001 93.2472 19.9761C93.2472 18.9061 94.0707 18.2329 95.5133 18.1488L97.3046 18.0466V17.5236C97.3046 16.7603 96.7997 16.3034 95.9341 16.3034C95.1286 16.3034 94.6237 16.6821 94.4915 17.2952H93.4816C93.5538 16.2133 94.4794 15.3838 95.9581 15.3838C97.4248 15.3838 98.3505 16.1772 98.3505 17.4215V21.7433H97.3587V20.6673H97.3346C96.9619 21.3826 96.1685 21.8515 95.327 21.8515ZM97.3046 19.369C97.3046 20.2706 96.5472 20.9619 95.5614 20.9619C94.81 20.9619 94.3111 20.5712 94.3111 19.9761C94.3111 19.387 94.792 19.0143 95.6335 18.9602L97.3046 18.8581V19.369ZM102.458 21.8515C100.865 21.8515 99.7827 20.5772 99.7827 18.6176C99.7827 16.6581 100.859 15.3838 102.433 15.3838C103.329 15.3838 104.05 15.8226 104.423 16.5078H104.447V13.0696H105.493V21.7433H104.495V20.6854H104.477C104.074 21.4067 103.359 21.8515 102.458 21.8515ZM100.853 18.6176C100.853 17.2051 101.55 16.3034 102.656 16.3034C103.732 16.3034 104.453 17.2231 104.453 18.6176C104.453 20.0182 103.732 20.9318 102.656 20.9318C101.55 20.9318 100.853 20.0362 100.853 18.6176ZM112.842 21.8515C111.11 21.8515 109.944 20.6072 109.944 18.6176C109.944 16.622 111.11 15.3838 112.842 15.3838C114.567 15.3838 115.733 16.622 115.733 18.6176C115.733 20.6072 114.567 21.8515 112.842 21.8515ZM114.669 18.6176C114.669 20.0903 113.948 20.9318 112.842 20.9318C111.736 20.9318 111.008 20.0903 111.008 18.6176C111.008 17.145 111.736 16.3034 112.842 16.3034C113.948 16.3034 114.669 17.145 114.669 18.6176ZM117.195 15.492H118.181V16.4898H118.205C118.553 15.8165 119.221 15.3838 120.188 15.3838C121.559 15.3838 122.352 16.2674 122.352 17.6859V21.7433H121.306V17.8723C121.306 16.8624 120.832 16.3094 119.87 16.3094C118.884 16.3094 118.241 17.0067 118.241 18.0646V21.7433H117.195V15.492ZM128.409 13.9832H127.363V15.492H126.431V16.3515H127.363V20.1204C127.363 21.3225 127.807 21.7914 128.956 21.7914C129.202 21.7914 129.491 21.7733 129.617 21.7433V20.8657C129.545 20.8777 129.304 20.8958 129.184 20.8958C128.649 20.8958 128.409 20.6373 128.409 20.0663V16.3515H129.623V15.492H128.409V13.9832ZM131.199 21.7433V13.0696H132.245V16.4898H132.269C132.618 15.7925 133.303 15.3838 134.253 15.3838C135.623 15.3838 136.453 16.3094 136.453 17.704V21.7433H135.407V17.8963C135.407 16.9045 134.908 16.3094 133.928 16.3094C132.888 16.3094 132.245 17.0187 132.245 18.1007V21.7433H131.199ZM143.367 19.952H142.339C142.165 20.5411 141.582 20.9438 140.788 20.9438C139.664 20.9438 138.961 20.1564 138.961 18.9602V18.9001H143.445V18.5034C143.445 16.61 142.405 15.3838 140.716 15.3838C138.991 15.3838 137.885 16.7001 137.885 18.6417C137.885 20.6072 138.973 21.8515 140.764 21.8515C142.129 21.8515 143.187 21.046 143.367 19.952ZM140.698 16.2914C139.718 16.2914 139.033 17.0428 138.967 18.0827H142.363C142.339 17.0368 141.684 16.2914 140.698 16.2914ZM60.5926 38.5312L62.1074 43.0066H64.827L58.8484 26.4476H56.0713L50.0927 43.0066H52.7664L54.2812 38.5312H60.5926ZM57.4025 29.2017L54.9353 36.4656H59.9385L57.4713 29.2017H57.4025ZM78.2849 36.9705C78.2849 33.1492 76.2652 30.7394 73.2013 30.7394C71.457 30.7394 70.0685 31.623 69.3571 33.0115H69.3111V30.9345H66.9128V47H69.3915V41.0213H69.4489C70.1374 42.364 71.5144 43.2131 73.2472 43.2131C76.2767 43.2131 78.2849 40.7918 78.2849 36.9705ZM72.5472 41.1131C74.5095 41.1131 75.7373 39.5066 75.7373 36.9705C75.7373 34.446 74.5095 32.8279 72.5472 32.8279C70.6538 32.8279 69.38 34.4804 69.38 36.9705C69.38 39.4836 70.6423 41.1131 72.5472 41.1131ZM92.1214 36.9705C92.1214 33.1492 90.1018 30.7394 87.0378 30.7394C85.2936 30.7394 83.9051 31.623 83.1936 33.0115H83.1477V30.9345H80.7493V47H83.228V41.0213H83.2854C83.9739 42.364 85.351 43.2131 87.0837 43.2131C90.1132 43.2131 92.1214 40.7918 92.1214 36.9705ZM86.3837 41.1131C88.346 41.1131 89.5739 39.5066 89.5739 36.9705C89.5739 34.446 88.346 32.8279 86.3837 32.8279C84.4903 32.8279 83.2165 34.4804 83.2165 36.9705C83.2165 39.4836 84.4788 41.1131 86.3837 41.1131ZM102.008 38.3935H99.4717C99.6323 41.3886 102.111 43.282 105.783 43.282C109.708 43.282 112.175 41.3427 112.175 38.2443C112.175 35.823 110.763 34.4574 107.367 33.6542L105.542 33.2066C103.408 32.6788 102.536 31.9902 102.536 30.8198C102.536 29.3509 103.901 28.3411 105.898 28.3411C107.895 28.3411 109.26 29.3394 109.409 30.9919H111.911C111.831 28.1345 109.432 26.1722 105.932 26.1722C102.398 26.1722 99.9077 28.1345 99.9077 30.9919C99.9077 33.2984 101.319 34.7214 104.36 35.4558L106.506 35.9722C108.652 36.5001 109.558 37.2689 109.558 38.5541C109.558 40.0345 108.055 41.1131 105.967 41.1131C103.786 41.1131 102.191 40.0345 102.008 38.3935ZM115.466 28.0771H117.956V30.9345H120.251V32.8968H117.956V39.5525C117.956 40.5968 118.415 41.0672 119.425 41.0672C119.677 41.0672 120.079 41.0443 120.239 41.0099V42.9722C119.964 43.041 119.413 43.0869 118.862 43.0869C116.418 43.0869 115.466 42.1574 115.466 39.8279V32.8968H113.71V30.9345H115.466V28.0771ZM122.015 36.9705C122.015 40.8607 124.287 43.2361 127.741 43.2361C131.196 43.2361 133.468 40.8607 133.468 36.9705C133.468 33.0919 131.184 30.7165 127.741 30.7165C124.299 30.7165 122.015 33.0919 122.015 36.9705ZM127.741 41.1935C129.692 41.1935 130.943 39.6558 130.943 36.9705C130.943 34.2968 129.681 32.7591 127.741 32.7591C125.802 32.7591 124.54 34.2968 124.54 36.9705C124.54 39.6558 125.802 41.1935 127.741 41.1935ZM138.308 30.9345H135.944V43.0066H138.422V35.7771C138.422 34.0673 139.409 33.0001 141.004 33.0001C141.486 33.0001 141.922 33.0574 142.117 33.1378V30.8312C141.934 30.7968 141.624 30.7394 141.268 30.7394C139.845 30.7394 138.767 31.5771 138.365 32.9886H138.308V30.9345ZM152.213 39.4607H154.565C154.221 41.664 152.133 43.2361 149.367 43.2361C145.821 43.2361 143.675 40.8377 143.675 37.0279C143.675 33.2411 145.856 30.7165 149.264 30.7165C152.615 30.7165 154.703 33.0804 154.703 36.741V37.5902H146.177V37.7394C146.177 39.8394 147.439 41.2279 149.424 41.2279C150.836 41.2279 151.88 40.5164 152.213 39.4607ZM146.188 35.8574C146.315 34.0329 147.531 32.7132 149.264 32.7132C150.997 32.7132 152.167 34.0099 152.224 35.8574H146.188Z" fill="#585757"/>
</g>
</svg>
