<svg width="255" height="180" viewBox="0 0 255 180" fill="none" xmlns="http://www.w3.org/2000/svg">
<g id="7. Placeholders/1. Vector/Image">
<rect id="&#226;&#172;&#155; Background" width="255" height="180" rx="8" fill="#DBDBDB"/>
<path id="&#240;&#159;&#148;&#185; Color" fill-rule="evenodd" clip-rule="evenodd" d="M121.6 81.2H134.4C135.725 81.2 136.8 82.2745 136.8 83.6V96.4C136.8 97.7254 135.725 98.8 134.4 98.8H121.6C120.274 98.8 119.2 97.7254 119.2 96.4V83.6C119.2 82.2745 120.274 81.2 121.6 81.2ZM126.24 90.88L122.72 95.28H133.28L130.64 91.76L128.854 94.1448L126.24 90.88ZM132.4 86.92C132.4 86.1896 131.81 85.6 131.08 85.6C130.35 85.6 129.76 86.1896 129.76 86.92C129.76 87.6504 130.35 88.24 131.08 88.24C131.81 88.24 132.4 87.6504 132.4 86.92Z" fill="#969696"/>
</g>
</svg>
