<svg width="18" height="18" viewBox="0 0 18 18" fill="none" xmlns="http://www.w3.org/2000/svg">
<path id="&#240;&#159;&#148;&#185; Color" fill-rule="evenodd" clip-rule="evenodd" d="M2.59995 0.200012H15.4C16.7254 0.200012 17.8 1.27453 17.8 2.60001V15.4C17.8 16.7255 16.7254 17.8 15.4 17.8H2.59995C1.27447 17.8 0.199951 16.7255 0.199951 15.4V2.60001C0.199951 1.27453 1.27447 0.200012 2.59995 0.200012ZM7.23995 9.88001L3.71995 14.28H14.28L11.64 10.76L9.85355 13.1448L7.23995 9.88001ZM13.4 5.92001C13.4 5.18961 12.8104 4.60001 12.08 4.60001C11.3496 4.60001 10.76 5.18961 10.76 5.92001C10.76 6.65041 11.3496 7.24001 12.08 7.24001C12.8104 7.24001 13.4 6.65041 13.4 5.92001Z" fill="#969696"/>
</svg>
